<svg width="597" height="597" viewBox="0 0 597 597" fill="none" xmlns="http://www.w3.org/2000/svg">
<g clip-path="url(#clip0)">
<path d="M570.141 457.933C573.628 445.181 584.983 402.376 592.696 359.022C601.89 307.262 609.937 235.968 573.138 206.059C536.339 176.149 488.03 211.814 462.729 200.316C437.428 188.817 436.282 131.302 368.403 114.061C300.524 96.8196 262.591 156.603 232.693 188.805C202.795 221.008 169.411 199.157 125.735 233.664C82.5119 267.788 119.168 422.316 151.131 457.933H570.141Z" fill="#2ECC71"/>
<path opacity="0.7" d="M570.141 457.933C573.628 445.181 584.983 402.376 592.696 359.022C601.89 307.262 609.937 235.968 573.138 206.059C536.339 176.149 488.03 211.814 462.729 200.316C437.428 188.817 436.282 131.302 368.403 114.061C300.524 96.8196 262.591 156.603 232.693 188.805C202.795 221.008 169.411 199.157 125.735 233.664C82.5119 267.788 119.168 422.316 151.131 457.933H570.141Z" fill="white"/>
<path d="M582.046 215.718H488.317C487.862 215.721 487.426 215.903 487.104 216.225C486.783 216.547 486.6 216.982 486.597 217.437V458.625C486.597 459.083 486.778 459.521 487.1 459.845C487.422 460.17 487.86 460.354 488.317 460.357H582.046C582.505 460.357 582.945 460.174 583.27 459.85C583.595 459.525 583.777 459.085 583.777 458.625V217.437C583.774 216.98 583.59 216.543 583.266 216.221C582.941 215.899 582.503 215.718 582.046 215.718ZM580.326 456.906H490.048V219.169H580.326V456.906Z" fill="white"/>
<path d="M496.591 268.791H573.783C574.01 268.791 574.234 268.747 574.444 268.659C574.653 268.572 574.843 268.445 575.003 268.284C575.163 268.123 575.289 267.932 575.375 267.722C575.461 267.512 575.504 267.287 575.502 267.06V226.309C575.504 226.083 575.461 225.858 575.375 225.649C575.289 225.44 575.162 225.25 575.002 225.09C574.842 224.93 574.652 224.803 574.443 224.717C574.234 224.631 574.009 224.588 573.783 224.59H496.591C496.364 224.588 496.139 224.631 495.929 224.717C495.719 224.803 495.528 224.929 495.368 225.089C495.207 225.249 495.079 225.439 494.992 225.648C494.905 225.858 494.86 226.082 494.86 226.309V267.06C494.86 267.519 495.042 267.96 495.367 268.284C495.691 268.609 496.132 268.791 496.591 268.791ZM498.31 228.004H572.052V265.305H498.31V228.004Z" fill="white"/>
<path d="M496.591 326.677H573.783C574.009 326.678 574.234 326.635 574.443 326.549C574.652 326.463 574.842 326.336 575.002 326.176C575.162 326.017 575.289 325.826 575.375 325.617C575.461 325.408 575.504 325.183 575.502 324.957V284.206C575.504 283.979 575.461 283.754 575.375 283.544C575.289 283.334 575.163 283.143 575.003 282.982C574.843 282.822 574.653 282.694 574.444 282.607C574.234 282.52 574.01 282.475 573.783 282.475H496.591C496.132 282.475 495.691 282.657 495.367 282.982C495.042 283.306 494.86 283.747 494.86 284.206V324.957C494.86 325.184 494.905 325.409 494.992 325.618C495.079 325.827 495.207 326.017 495.368 326.177C495.528 326.337 495.719 326.463 495.929 326.549C496.139 326.635 496.364 326.678 496.591 326.677ZM498.31 285.925H572.052V323.238H498.31V285.925Z" fill="white"/>
<path d="M496.591 384.574H573.783C574.239 384.574 574.676 384.392 574.999 384.07C575.321 383.748 575.503 383.31 575.503 382.854V342.091C575.503 341.635 575.321 341.198 574.999 340.875C574.676 340.553 574.239 340.372 573.783 340.372H496.591C496.134 340.372 495.695 340.552 495.371 340.875C495.047 341.197 494.863 341.634 494.86 342.091V382.854C494.863 383.311 495.047 383.749 495.371 384.071C495.695 384.393 496.134 384.574 496.591 384.574ZM498.31 343.822H572.052V381.123H498.31V343.822Z" fill="white"/>
<path d="M496.591 442.471H573.783C574.01 442.471 574.234 442.426 574.444 442.339C574.653 442.252 574.843 442.124 575.003 441.963C575.163 441.802 575.289 441.611 575.375 441.401C575.461 441.191 575.504 440.966 575.503 440.739V399.94C575.504 399.714 575.461 399.49 575.375 399.281C575.289 399.071 575.162 398.881 575.002 398.721C574.842 398.561 574.652 398.435 574.443 398.349C574.234 398.263 574.009 398.219 573.783 398.221H496.591C496.364 398.219 496.139 398.263 495.929 398.348C495.719 398.434 495.529 398.561 495.368 398.72C495.207 398.88 495.079 399.07 494.992 399.28C494.905 399.489 494.86 399.714 494.86 399.94V440.692C494.853 440.923 494.893 441.153 494.978 441.369C495.062 441.584 495.188 441.781 495.35 441.947C495.511 442.113 495.704 442.245 495.917 442.334C496.131 442.424 496.36 442.471 496.591 442.471ZM498.31 401.719H572.052V439.02H498.31V401.719Z" fill="white"/>
<path d="M464.64 130.096H212.18C211.732 130.096 211.302 130.271 210.981 130.583C210.66 130.895 210.473 131.32 210.461 131.768V257.52C210.461 257.747 210.506 257.971 210.593 258.181C210.68 258.39 210.808 258.58 210.969 258.74C211.13 258.9 211.321 259.026 211.531 259.112C211.741 259.198 211.965 259.241 212.192 259.239H464.64C464.866 259.241 465.09 259.198 465.299 259.112C465.509 259.026 465.699 258.899 465.859 258.739C466.019 258.579 466.145 258.389 466.231 258.18C466.317 257.971 466.361 257.746 466.359 257.52V131.768C466.35 131.319 466.164 130.892 465.842 130.58C465.52 130.267 465.088 130.093 464.64 130.096ZM462.908 133.547V250.225H213.9V133.499L462.908 133.547Z" fill="white"/>
<path d="M529.254 376.877L523.821 458.928C523.791 459.345 523.605 459.736 523.299 460.021C522.994 460.307 522.592 460.467 522.173 460.468C521.953 460.469 521.736 460.424 521.533 460.339C521.331 460.253 521.148 460.127 520.995 459.968C520.842 459.81 520.723 459.623 520.645 459.417C520.566 459.212 520.53 458.993 520.538 458.773L522.77 376.877H529.254Z" fill="#263238" stroke="#263238" stroke-linecap="round" stroke-linejoin="round"/>
<path d="M543.152 376.877L548.585 458.928C548.612 459.344 548.796 459.735 549.099 460.02C549.403 460.306 549.803 460.466 550.22 460.468C550.441 460.469 550.659 460.424 550.862 460.339C551.065 460.253 551.249 460.127 551.403 459.969C551.556 459.811 551.677 459.624 551.757 459.418C551.837 459.213 551.874 458.993 551.868 458.773L549.611 376.924L543.152 376.877Z" fill="#263238" stroke="#263238" stroke-linecap="round" stroke-linejoin="round"/>
<path d="M488.682 376.877L494.114 458.928C494.142 459.344 494.325 459.735 494.629 460.02C494.933 460.306 495.333 460.466 495.75 460.468C495.971 460.469 496.189 460.424 496.392 460.339C496.595 460.253 496.779 460.127 496.932 459.969C497.086 459.811 497.206 459.624 497.286 459.418C497.366 459.213 497.404 458.993 497.398 458.773L495.129 376.924L488.682 376.877Z" fill="#263238" stroke="#263238" stroke-linecap="round" stroke-linejoin="round"/>
<path d="M466.485 376.877L461.052 458.928C461.022 459.345 460.836 459.736 460.53 460.021C460.225 460.307 459.823 460.467 459.405 460.468C459.185 460.467 458.967 460.422 458.765 460.335C458.563 460.249 458.379 460.123 458.226 459.966C458.073 459.808 457.952 459.621 457.872 459.416C457.791 459.212 457.752 458.993 457.757 458.773L460.026 376.924L466.485 376.877Z" fill="#263238" stroke="#263238" stroke-linecap="round" stroke-linejoin="round"/>
<path d="M561.134 294.156C561.134 294.156 506.926 292.126 502.341 292.126C497.756 292.126 496.693 294.156 496.693 294.156L488.956 348.71C488.956 348.71 464.897 341.845 460.181 342.74C455.465 343.636 462.509 377.868 462.509 377.868H489.732L490.222 375.814H551.689L568.011 298.061C567.02 294.503 561.134 294.156 561.134 294.156Z" fill="white" stroke="#263238" stroke-linecap="round" stroke-linejoin="round"/>
<path d="M540.501 328.281C540.501 328.281 546.017 364.101 539.689 368.28C538.71 368.924 533.397 371.981 528.43 371.48C524.442 371.074 496.263 371.48 496.263 371.48C496.263 371.48 492.347 364.029 491.559 358.537C490.771 353.044 496.932 329.475 496.932 329.475L540.501 328.281Z" fill="white" stroke="#263238" stroke-linecap="round" stroke-linejoin="round"/>
<path d="M494.353 347.468C494.353 347.468 453.566 351.707 451.644 352.853C449.721 353.999 440.898 361.701 442.414 366.704C443.931 371.707 440.11 372.089 443.608 372.865C447.107 373.641 496.693 373.629 496.693 373.629" fill="#2ECC71"/>
<path d="M494.353 347.468C494.353 347.468 453.566 351.707 451.644 352.853C449.721 353.999 440.898 361.701 442.414 366.704C443.931 371.707 440.11 372.089 443.608 372.865C447.107 373.641 496.693 373.629 496.693 373.629" stroke="#263238" stroke-linecap="round" stroke-linejoin="round"/>
<path d="M457.255 377.808H554.172V370.572H457.255V377.808Z" fill="white" stroke="#263238" stroke-linecap="round" stroke-linejoin="round"/>
<path d="M531.284 349.009H472.897C472.897 349.009 469.828 352.471 469.434 359.755C469.04 367.038 469.828 368.602 475.213 370.501C480.598 372.399 528.43 371.432 528.43 371.432" fill="#2ECC71"/>
<path d="M531.284 349.009H472.897C472.897 349.009 469.828 352.471 469.434 359.755C469.04 367.038 469.828 368.602 475.213 370.501C480.598 372.399 528.43 371.432 528.43 371.432" stroke="#263238" stroke-linecap="round" stroke-linejoin="round"/>
<path d="M485.279 441.663L479.165 427.18L469.148 429.078L476.813 441.997L472.395 450.845L462.843 457.089C462.843 457.089 461.733 458.188 466.509 457.818C471.285 457.448 481.195 457.818 481.195 457.818L487.44 450.475C487.44 450.475 489.708 446.738 485.279 441.663Z" fill="white" stroke="#263238" stroke-linecap="round" stroke-linejoin="round"/>
<path d="M487.953 447.991L488.204 457.46H486.712L484.718 452.731L487.953 447.991Z" fill="#263238" stroke="#263238" stroke-linecap="round" stroke-linejoin="round"/>
<path d="M481.207 457.866L487.452 450.522C487.452 450.522 489.064 447.788 486.843 443.848C482.401 451.442 476.491 453.722 476.491 453.722L470.33 452.242L462.855 457.137C462.855 457.137 461.745 458.236 466.521 457.866C471.297 457.495 481.207 457.866 481.207 457.866Z" fill="#263238" stroke="#263238" stroke-linecap="round" stroke-linejoin="round"/>
<path d="M461.267 367.862L481.745 429.771L467.214 432.35L438.557 367.874C438.557 367.874 436.253 358.25 442.402 355.182C448.551 352.113 466.64 350.561 466.64 350.561" fill="#2ECC71"/>
<path d="M461.267 367.862L481.745 429.771L467.214 432.35L438.557 367.874C438.557 367.874 436.253 358.25 442.402 355.182C448.551 352.113 466.64 350.561 466.64 350.561" stroke="#263238" stroke-linecap="round" stroke-linejoin="round"/>
<path d="M526.949 377.796C526.949 377.796 519.893 343.516 524.621 342.668C529.349 341.821 553.396 348.638 553.396 348.638L561.134 294.156C561.134 294.156 569.3 292.867 570.16 300.126C571.02 307.386 554.172 377.796 554.172 377.796H526.949Z" fill="#263238" stroke="#263238" stroke-linecap="round" stroke-linejoin="round"/>
<path d="M443.859 276.867L440.217 270.897C439.866 270.325 439.372 269.855 438.784 269.532C438.195 269.21 437.533 269.046 436.862 269.058L433.435 269.118L427.573 267.363C427.2 267.254 426.804 267.259 426.434 267.376C426.064 267.492 425.737 267.717 425.495 268.02L425.28 268.294L430.677 270.682L425.292 272.664L419.573 269.763C419.348 269.647 419.089 269.615 418.842 269.672C418.595 269.729 418.376 269.871 418.224 270.073C418.05 270.298 417.973 270.583 418.009 270.865C418.044 271.147 418.19 271.403 418.415 271.578L426.415 277.751C426.665 277.946 426.955 278.085 427.264 278.159C427.572 278.233 427.894 278.24 428.206 278.18L437.053 276.401L439.525 279.1L443.859 276.867Z" fill="white" stroke="#263238" stroke-linecap="round" stroke-linejoin="round"/>
<path d="M505.541 264.617L472.742 298.92L441.435 273.619L437.113 276.76L471.56 315.792L501.422 299.708L505.541 264.617Z" fill="white" stroke="#263238" stroke-linecap="round" stroke-linejoin="round"/>
<path d="M554.614 273.381L571.808 326.215L556.978 326.645L542.233 301.846C542.233 301.846 550.519 276.831 554.614 273.381Z" fill="white" stroke="#263238" stroke-linecap="round" stroke-linejoin="round"/>
<path d="M535.904 264.306L554.614 273.44L538.949 317.248L540.8 329.463L496.932 329.534L502.162 309.857L498.58 297.249C498.115 295.613 498.09 293.883 498.508 292.234L505.529 264.676L523.964 261.715L535.904 264.306Z" fill="white" stroke="#263238" stroke-linecap="round" stroke-linejoin="round"/>
<path d="M535.009 261.739C535.009 261.739 538.686 264.223 538.806 266.432C538.865 267.733 538.806 270.014 538.686 271.757C538.621 273.119 538.309 274.458 537.767 275.709L531.14 283.709L523.475 277.655L517.111 280.903C517.111 280.903 515.917 271.148 518.699 264.342C521.481 257.536 533.588 260.032 535.009 261.739Z" fill="white" stroke="#263238" stroke-linecap="round" stroke-linejoin="round"/>
<path d="M540.274 242.814C540.274 242.814 538.77 248.223 538.065 251.805C537.361 255.387 535.94 262.551 536.071 265.238C536.203 267.924 524.896 279.363 523.475 277.655C522.054 275.948 520.561 266.026 520.561 266.026L521.97 249.978C521.97 249.978 536.704 233.656 540.274 242.814Z" fill="white" stroke="#263238" stroke-linecap="round" stroke-linejoin="round"/>
<path d="M516.645 234.456C516.645 234.456 514.627 237.787 514.627 239.232C514.627 240.677 515.332 243.507 515.212 244.331C515.093 245.154 513.087 247.913 512.824 248.844C512.692 249.223 512.703 249.637 512.855 250.009C513.007 250.38 513.289 250.683 513.648 250.862C514.136 251.112 514.61 251.386 515.069 251.686C515.069 251.686 515.666 259.041 516.621 260.939C517.576 262.838 518.4 263.673 521.242 263.912C524.084 264.151 530.854 261.178 531.797 258.802C532.74 256.426 532.872 253.584 532.991 250.145C533.11 246.707 530.734 241.787 528.955 237.095C527.176 232.403 519.726 229.823 516.645 234.456Z" fill="white" stroke="#263238" stroke-linecap="round" stroke-linejoin="round"/>
<path d="M547.271 258.742C552.303 258.742 556.381 254.663 556.381 249.632C556.381 244.601 552.303 240.522 547.271 240.522C542.24 240.522 538.161 244.601 538.161 249.632C538.161 254.663 542.24 258.742 547.271 258.742Z" fill="#263238" stroke="#263238" stroke-linecap="round" stroke-linejoin="round"/>
<path d="M516.597 233.943C516.597 233.943 520.263 230.779 526.854 237.071C533.445 243.363 530.937 252.462 535.343 254.348C539.749 256.235 547.904 246.802 548.847 242.098C549.79 237.393 546.961 227.639 538.161 225.752C529.361 223.865 518.579 225.155 516.597 233.943Z" fill="#263238" stroke="#263238" stroke-linecap="round" stroke-linejoin="round"/>
<path d="M516.597 233.943C516.519 233.203 516.611 232.455 516.865 231.756C517.12 231.056 517.53 230.424 518.065 229.908C518.601 229.391 519.247 229.003 519.954 228.773C520.662 228.543 521.413 228.478 522.149 228.582C528.119 228.904 528.74 238.325 531.881 242.098C535.021 245.871 536.597 245.238 536.597 245.238C536.597 245.238 531.26 246.802 527.797 244.916C524.334 243.029 522.663 232.391 516.597 233.943Z" fill="#263238" stroke="#263238" stroke-linecap="round" stroke-linejoin="round"/>
<path d="M526.352 227.483C529.493 229.424 531.987 232.254 533.516 235.614C536.227 241.358 536.227 246.098 542.662 245.763C542.662 245.763 539.618 246.444 534.878 244.068C530.137 241.692 529.122 234.934 526.078 232.223C524.417 230.651 522.268 229.695 519.988 229.513" stroke="white" stroke-width="0.5" stroke-linecap="round" stroke-linejoin="round"/>
<path d="M548.847 242.098C548.847 242.098 548.573 250.719 541.958 252.533" stroke="white" stroke-width="0.5" stroke-linecap="round" stroke-linejoin="round"/>
<path d="M530.388 250.898C530.388 250.898 536.692 242.647 538.173 248.808C539.653 254.969 534.591 256.474 532.203 255.769C529.815 255.065 530.149 253.787 530.149 253.787" fill="white"/>
<path d="M530.388 250.898C530.388 250.898 536.692 242.647 538.173 248.808C539.653 254.969 534.591 256.474 532.203 255.769C529.815 255.065 530.149 253.787 530.149 253.787" stroke="#263238" stroke-linecap="round" stroke-linejoin="round"/>
<path d="M516.359 321.499C516.359 321.499 504.323 323.17 502.317 323.17C500.311 323.17 495.296 329.523 495.296 329.523H517.362L516.359 321.499Z" fill="white" stroke="#263238" stroke-linecap="round" stroke-linejoin="round"/>
<path d="M567.486 313.404L571.808 323.147C572.002 323.72 572.057 324.331 571.97 324.93C571.883 325.529 571.655 326.099 571.306 326.594C570.957 327.089 570.496 327.494 569.961 327.776C569.426 328.059 568.831 328.212 568.226 328.221L516.048 328.52L516.382 321.499L556.835 315.099" fill="white"/>
<path d="M567.486 313.404L571.808 323.147C572.002 323.72 572.057 324.331 571.97 324.93C571.883 325.529 571.655 326.099 571.306 326.594C570.957 327.089 570.496 327.494 569.961 327.776C569.426 328.059 568.831 328.212 568.226 328.221L516.048 328.52L516.382 321.499L556.835 315.099" stroke="#263238" stroke-linecap="round" stroke-linejoin="round"/>
<path d="M497.649 447.991L497.899 457.46H496.407L494.413 452.731L497.649 447.991Z" fill="#263238" stroke="#263238" stroke-linecap="round" stroke-linejoin="round"/>
<path d="M494.974 441.663L493.052 427.884L483.046 428.529L486.509 442.093L482.091 450.94L472.539 457.185C472.539 457.185 471.44 458.283 476.216 457.913C480.992 457.543 490.902 457.913 490.902 457.913L497.147 450.57C497.147 450.57 499.404 446.738 494.974 441.663Z" fill="white" stroke="#263238" stroke-linecap="round" stroke-linejoin="round"/>
<path d="M490.902 457.866L497.147 450.522C497.147 450.522 498.759 447.788 496.526 443.848C492.085 451.442 486.174 453.722 486.174 453.722L480.025 452.242L472.539 457.137C472.539 457.137 471.44 458.236 476.216 457.866C480.992 457.495 490.902 457.866 490.902 457.866Z" fill="#263238" stroke="#263238" stroke-linecap="round" stroke-linejoin="round"/>
<path d="M490.389 357.199L494.676 430.415L481.1 430.738L467.846 364.22C467.846 364.22 468.097 351.552 472.145 350.095C476.192 348.638 486.938 350.203 486.938 350.203" fill="#2ECC71"/>
<path d="M490.389 357.199L494.676 430.415L481.1 430.738L467.846 364.22C467.846 364.22 468.097 351.552 472.145 350.095C476.192 348.638 486.938 350.203 486.938 350.203" stroke="#263238" stroke-linecap="round" stroke-linejoin="round"/>
<path d="M408.869 198.703L425.717 245.926C425.717 245.926 423.496 256.612 416.809 256.17C410.123 255.729 408.344 246.368 406.565 245.03C404.786 243.693 402.111 233.448 402.111 233.448L408.869 198.703Z" fill="white" stroke="#263238" stroke-linecap="round" stroke-linejoin="round"/>
<path d="M365.288 189.235L337.898 199.121L348.405 275.071H397.825L408.869 198.703L379.306 189.45L365.288 189.235Z" fill="white" stroke="#263238" stroke-linecap="round" stroke-linejoin="round"/>
<path d="M367.927 202.249L371.879 208.207L368.452 258.737L373.491 271.895L378.661 259.096L374.231 208.96L377.789 200.351L372.858 193.867L367.927 202.249Z" fill="#2ECC71" stroke="#263238" stroke-linecap="round" stroke-linejoin="round"/>
<path d="M373.395 199.79L366.339 205.079L361.694 191.288L364.93 184.303L379.365 183.957L382.888 187.121L382.183 204.721L373.395 199.79Z" fill="white" stroke="#263238" stroke-linecap="round" stroke-linejoin="round"/>
<path d="M380.858 180.721L379.759 189.593L371.855 199.79L365.945 189.45V172.817C365.945 172.817 376.297 175.408 380.858 180.721Z" fill="white" stroke="#263238" stroke-linecap="round" stroke-linejoin="round"/>
<path d="M361.885 162.286C361.885 154.227 367.76 147.695 375.019 147.695C382.279 147.695 386.303 154.585 386.303 162.644C386.303 165.247 385.765 169.713 385.55 172.089C385.18 176.148 383.95 177.868 381.55 181.509C373.682 193.449 367.222 175.933 363.915 170.047C362.576 167.68 361.877 165.005 361.885 162.286Z" fill="white" stroke="#263238" stroke-linecap="round" stroke-linejoin="round"/>
<path d="M380.727 164.817L381.837 173.139L377.933 173.032" fill="white"/>
<path d="M380.727 164.817L381.837 173.139L377.933 173.032" stroke="#263238" stroke-linecap="round" stroke-linejoin="round"/>
<path d="M389.443 163.373L370.673 163.456C370.442 164.186 370.407 164.964 370.571 165.712C370.734 166.459 371.09 167.151 371.604 167.719C372.798 168.913 377.658 168.495 378.434 168.184C379.21 167.874 379.628 164.459 379.628 164.459H381.025C381.025 164.459 381.18 168.041 383.186 168.34C385.192 168.638 387.807 168.543 388.308 168.184C390.529 166.692 389.443 163.373 389.443 163.373Z" fill="white" stroke="#263238" stroke-linecap="round" stroke-linejoin="round"/>
<path d="M364.202 171.396C364.202 171.396 368.428 180.053 369.431 183.05C370.434 186.047 375.401 188.387 380.428 186.715C385.455 185.044 384.094 177.605 384.094 177.605C384.094 177.605 378.756 173.044 377.765 174.023C376.774 175.002 371.425 179.36 371.091 178.357C370.757 177.354 368.428 171.36 368.428 171.36L367.342 167.11L369.575 165.677C369.897 165.409 370.107 165.029 370.162 164.613C370.217 164.197 370.114 163.776 369.873 163.432L368.822 161.916C368.693 161.73 368.602 161.52 368.555 161.299C368.507 161.077 368.505 160.849 368.548 160.626C368.822 159.325 369.575 156.627 371.318 155.85C373.706 154.859 376.607 156.304 379.282 156.973C381.956 157.641 384.858 155.23 384.858 155.23L386.052 159.194C388.699 156.709 390.58 153.519 391.473 150C392.81 144.328 379.139 142 374.757 142C370.375 142 363.426 144.388 361.42 150.668C359.414 156.949 363.02 170.274 364.202 171.396Z" fill="#263238" stroke="#263238" stroke-linecap="round" stroke-linejoin="round"/>
<path d="M375.019 150.036C375.019 150.036 377.503 153.761 374.243 154.537C370.984 155.313 364.632 152.519 361.838 153.606" stroke="white" stroke-width="0.5" stroke-linecap="round" stroke-linejoin="round"/>
<path d="M369.431 158.25C369.431 158.25 364.321 157.629 362.267 159.803" stroke="white" stroke-width="0.5" stroke-linecap="round" stroke-linejoin="round"/>
<path d="M381.73 177.08C381.73 177.08 377.968 179.038 376.106 176.71" stroke="white" stroke-width="0.5" stroke-linecap="round" stroke-linejoin="round"/>
<path d="M364.834 168.758C364.834 168.758 361.145 164.698 361.145 169.128C361.145 173.557 362.255 173.557 364.464 175.098C366.673 176.638 367.425 174.728 367.425 174.728" fill="white"/>
<path d="M364.834 168.758C364.834 168.758 361.145 164.698 361.145 169.128C361.145 173.557 362.255 173.557 364.464 175.098C366.673 176.638 367.425 174.728 367.425 174.728" stroke="#263238" stroke-linecap="round" stroke-linejoin="round"/>
<path d="M414.099 443.986H414.266L413.944 442.363L397.825 275.083H348.405L332.155 443.975H332.334L342.817 444.87C342.817 444.87 354.447 405.826 354.447 402.913C354.447 400 357.766 373.063 357.766 373.063L374.255 315.094L388.834 373.063C388.834 373.063 392.153 400.059 392.153 402.913C392.153 405.767 403.795 444.894 403.795 444.894L413.657 444.046H414.099V443.986Z" fill="#263238" stroke="#263238" stroke-linecap="round" stroke-linejoin="round"/>
<path d="M394.135 284.922L383.139 300.623" stroke="white" stroke-width="0.5" stroke-linecap="round" stroke-linejoin="round"/>
<path d="M388.249 288.456L381.574 299.453" stroke="white" stroke-width="0.5" stroke-linecap="round" stroke-linejoin="round"/>
<path d="M356.847 287.68L366.649 298.271" stroke="white" stroke-width="0.5" stroke-linecap="round" stroke-linejoin="round"/>
<path d="M356.059 291.596L370.184 305.733" stroke="white" stroke-width="0.5" stroke-linecap="round" stroke-linejoin="round"/>
<path d="M351.342 276.683H394.923" stroke="white" stroke-width="0.5" stroke-linecap="round" stroke-linejoin="round"/>
<path d="M332.334 443.975C332.334 443.975 326.041 448.93 322.412 450.291C318.782 451.652 312 455.27 312 455.27C312 455.27 312 457.538 317.886 457.538H340.99L340.596 443.975H332.334Z" fill="#263238" stroke="#263238" stroke-linecap="round" stroke-linejoin="round"/>
<path d="M340.907 455.067C331.681 455.488 322.438 455.341 313.23 454.625L312.036 455.27C312.036 455.27 312.036 457.538 317.922 457.538H341.026L340.907 455.067Z" fill="white" stroke="#263238" stroke-linecap="round" stroke-linejoin="round"/>
<path d="M413.144 443.975C413.144 443.975 419.448 448.93 423.066 450.291C426.684 451.652 433.489 455.27 433.489 455.27C433.489 455.27 433.489 457.538 427.591 457.538H404.499L404.917 443.975H413.144Z" fill="#263238" stroke="#263238" stroke-linecap="round" stroke-linejoin="round"/>
<path d="M404.571 455.067C413.797 455.488 423.04 455.341 432.248 454.625L433.442 455.27C433.442 455.27 433.442 457.538 427.543 457.538H404.499L404.571 455.067Z" fill="white" stroke="#263238" stroke-linecap="round" stroke-linejoin="round"/>
<path d="M337.898 199.121L319.701 247.705H337.158L343.677 234.451L337.898 199.121Z" fill="white" stroke="#263238" stroke-linecap="round" stroke-linejoin="round"/>
<path d="M417.502 240.183C410.218 237.174 386.852 235.681 385.634 235.681C384.416 235.681 346.435 232.553 343.319 232.099C340.202 231.646 336.632 238.786 336.632 238.786L353.109 238.332L373.157 242.344C373.157 242.344 413.753 257.042 416.809 256.158C417.226 256.019 417.603 255.782 417.908 255.466" fill="white"/>
<path d="M417.502 240.183C410.218 237.174 386.852 235.681 385.634 235.681C384.416 235.681 346.435 232.553 343.319 232.099C340.202 231.646 336.632 238.786 336.632 238.786L353.109 238.332L373.157 242.344C373.157 242.344 413.753 257.042 416.809 256.158C417.226 256.019 417.603 255.782 417.908 255.466" stroke="#263238" stroke-linecap="round" stroke-linejoin="round"/>
<path d="M332.62 237.902L395.425 231.669L395.878 237.007L341.528 253.496C341.528 253.496 331.737 255.717 324.155 254.379C316.573 253.042 320.155 245.472 321.934 241.018" fill="white"/>
<path d="M332.62 237.902L395.425 231.669L395.878 237.007L341.528 253.496C341.528 253.496 331.737 255.717 324.155 254.379C316.573 253.042 320.155 245.472 321.934 241.018" stroke="#263238" stroke-linecap="round" stroke-linejoin="round"/>
<path d="M395.437 231.669L407.46 231.216L411.018 238.344L395.878 237.019L395.437 231.669Z" fill="white" stroke="#263238" stroke-linecap="round" stroke-linejoin="round"/>
<path d="M441.78 336.899L452.036 459.009C452.063 459.191 452.127 459.366 452.224 459.522C452.321 459.679 452.449 459.813 452.6 459.919C452.751 460.024 452.922 460.097 453.102 460.134C453.282 460.17 453.468 460.17 453.648 460.132C453.956 460.056 454.225 459.871 454.407 459.612C454.589 459.354 454.672 459.038 454.639 458.723L447.655 336.935L441.78 336.899Z" fill="#263238" stroke="#263238" stroke-linecap="round" stroke-linejoin="round"/>
<path d="M510.71 336.899L521.002 459.415C521.027 459.598 521.09 459.774 521.187 459.931C521.283 460.088 521.411 460.224 521.562 460.329C521.714 460.435 521.885 460.507 522.066 460.543C522.247 460.579 522.434 460.577 522.614 460.538C522.921 460.462 523.19 460.277 523.373 460.018C523.555 459.76 523.637 459.444 523.605 459.129L516.596 336.899H510.71Z" fill="#263238" stroke="#263238" stroke-linecap="round" stroke-linejoin="round"/>
<path d="M226.251 336.899L220.89 457.947C220.86 458.264 220.945 458.582 221.129 458.842C221.313 459.103 221.584 459.289 221.893 459.368C222.07 459.413 222.255 459.42 222.436 459.388C222.616 459.356 222.787 459.285 222.938 459.181C223.088 459.077 223.215 458.941 223.309 458.784C223.402 458.627 223.461 458.451 223.481 458.269L232.161 336.899H226.251Z" fill="#263238" stroke="#263238" stroke-linecap="round" stroke-linejoin="round"/>
<path d="M162.718 336.899L157.321 457.493C157.295 457.812 157.382 458.13 157.568 458.39C157.754 458.65 158.026 458.836 158.336 458.914C158.514 458.957 158.698 458.963 158.878 458.93C159.057 458.897 159.228 458.826 159.378 458.722C159.528 458.618 159.654 458.484 159.748 458.327C159.843 458.171 159.903 457.997 159.924 457.815L168.569 336.851L162.718 336.899Z" fill="#263238" stroke="#263238" stroke-linecap="round" stroke-linejoin="round"/>
<path d="M524.13 330.129H158.898V340.612H524.13V330.129Z" fill="#2ECC71" stroke="#263238" stroke-linecap="round" stroke-linejoin="round"/>
<path d="M524.13 330.129H158.898V333.723H524.13V330.129Z" fill="#263238" stroke="#263238" stroke-linecap="round" stroke-linejoin="round"/>
<path d="M524.118 330.129H432.73V340.612H524.118V330.129Z" fill="#263238" stroke="#263238" stroke-linecap="round" stroke-linejoin="round"/>
<path d="M527.378 326.643H155.638V330.643H527.378V326.643Z" fill="#2ECC71" stroke="#263238" stroke-linecap="round" stroke-linejoin="round"/>
<path d="M527.366 326.643H436.538V330.643H527.366V326.643Z" fill="#263238" stroke="#263238" stroke-linecap="round" stroke-linejoin="round"/>
<path d="M238.442 326.284H288.327C288.517 326.286 288.704 326.231 288.863 326.127C289.022 326.023 289.147 325.874 289.223 325.699L303.037 294.202C303.101 294.054 303.126 293.893 303.112 293.733C303.098 293.573 303.043 293.419 302.955 293.285C302.866 293.151 302.745 293.041 302.603 292.966C302.461 292.89 302.302 292.851 302.142 292.852H252.256C252.069 292.852 251.887 292.906 251.73 293.008C251.573 293.11 251.449 293.255 251.373 293.425L237.606 324.923C237.542 325.067 237.513 325.224 237.524 325.381C237.534 325.538 237.582 325.69 237.665 325.824C237.747 325.959 237.861 326.071 237.996 326.151C238.132 326.231 238.285 326.277 238.442 326.284Z" fill="white" stroke="#263238" stroke-linecap="round" stroke-linejoin="round"/>
<path d="M243.122 323.825H285.688C285.848 323.825 286.004 323.778 286.137 323.691C286.271 323.604 286.376 323.481 286.441 323.335L298.225 296.458C298.289 296.331 298.319 296.19 298.312 296.048C298.306 295.907 298.262 295.769 298.186 295.649C298.111 295.529 298.005 295.43 297.88 295.363C297.755 295.295 297.615 295.261 297.473 295.264H254.907C254.744 295.263 254.585 295.31 254.449 295.399C254.313 295.489 254.207 295.616 254.143 295.766L242.382 322.667C242.327 322.791 242.303 322.927 242.313 323.063C242.324 323.199 242.367 323.33 242.441 323.445C242.514 323.559 242.615 323.654 242.734 323.72C242.853 323.787 242.986 323.823 243.122 323.825Z" fill="#2ECC71" stroke="#263238" stroke-linecap="round" stroke-linejoin="round"/>
<path d="M289.02 324.195H214.072V326.643H289.02V324.195Z" fill="white" stroke="#263238" stroke-linecap="round" stroke-linejoin="round"/>
<path d="M289.032 324.195H252.698V326.643H289.032V324.195Z" fill="white" stroke="#263238" stroke-linecap="round" stroke-linejoin="round"/>
<path d="M313.103 307.157H299.885V326.69H313.103V307.157Z" fill="white" stroke="#263238" stroke-linecap="round" stroke-linejoin="round"/>
<path d="M312.518 324.028H311.133C310.844 324.028 310.568 323.913 310.364 323.709C310.16 323.506 310.046 323.229 310.046 322.941C310.046 322.653 310.16 322.377 310.364 322.173C310.568 321.969 310.844 321.855 311.133 321.855H312.518C313.064 321.852 313.588 321.633 313.975 321.246C314.361 320.859 314.58 320.336 314.583 319.789V315.013C314.58 314.466 314.361 313.943 313.975 313.556C313.588 313.169 313.064 312.951 312.518 312.947H310.738C310.596 312.947 310.455 312.919 310.323 312.865C310.191 312.81 310.071 312.73 309.97 312.629C309.869 312.528 309.789 312.408 309.735 312.277C309.68 312.145 309.652 312.004 309.652 311.861C309.652 311.718 309.68 311.577 309.735 311.445C309.789 311.313 309.869 311.193 309.97 311.093C310.071 310.992 310.191 310.912 310.323 310.857C310.455 310.802 310.596 310.774 310.738 310.774H312.518C313.074 310.774 313.625 310.884 314.14 311.097C314.654 311.31 315.121 311.622 315.515 312.016C315.908 312.409 316.221 312.877 316.434 313.391C316.647 313.905 316.756 314.456 316.756 315.013V319.789C316.756 320.346 316.647 320.897 316.434 321.411C316.221 321.925 315.908 322.393 315.515 322.786C315.121 323.18 314.654 323.492 314.14 323.705C313.625 323.918 313.074 324.028 312.518 324.028Z" fill="white" stroke="#263238" stroke-linecap="round" stroke-linejoin="round"/>
<path d="M416.372 326.284H366.486C366.298 326.283 366.114 326.228 365.957 326.124C365.8 326.02 365.677 325.872 365.603 325.699L351.788 294.202C351.725 294.055 351.699 293.895 351.713 293.736C351.727 293.576 351.78 293.423 351.868 293.29C351.955 293.156 352.074 293.046 352.215 292.97C352.355 292.894 352.512 292.853 352.672 292.852H402.557C402.746 292.851 402.931 292.905 403.089 293.007C403.248 293.108 403.374 293.254 403.453 293.425L417.267 324.923C417.33 325.072 417.355 325.233 417.341 325.394C417.326 325.554 417.272 325.709 417.184 325.843C417.095 325.978 416.975 326.089 416.833 326.166C416.691 326.243 416.533 326.283 416.372 326.284Z" fill="white" stroke="#263238" stroke-linecap="round" stroke-linejoin="round"/>
<path d="M365.794 326.643H440.741V324.195H365.794V326.643Z" fill="white" stroke="#263238" stroke-linecap="round" stroke-linejoin="round"/>
<path d="M365.794 326.643H417.47V324.195H365.794V326.643Z" fill="white" stroke="#263238" stroke-linecap="round" stroke-linejoin="round"/>
<path d="M385.352 305.927C385.622 306.438 385.735 307.018 385.678 307.593C385.62 308.168 385.394 308.714 385.027 309.161C384.661 309.609 384.17 309.938 383.617 310.108C383.065 310.277 382.474 310.28 381.919 310.116C381.365 309.951 380.872 309.627 380.501 309.183C380.13 308.739 379.899 308.196 379.835 307.621C379.772 307.046 379.88 306.465 380.146 305.951C380.411 305.438 380.822 305.014 381.328 304.733C382.02 304.359 382.832 304.275 383.586 304.498C384.341 304.722 384.975 305.236 385.352 305.927Z" fill="white" stroke="#263238" stroke-linecap="round" stroke-linejoin="round"/>
<path d="M154.544 212.933L158.221 249.266L174.937 297.659L169.218 300.931L149.589 256.633L139.786 218.604C139.786 218.604 138.962 207.166 143.058 205.47C147.153 203.775 152.908 205.578 154.544 212.933Z" fill="white" stroke="#263238" stroke-linecap="round" stroke-linejoin="round"/>
<path d="M174.985 297.707C174.985 297.707 178.663 305.48 179.08 307.521C179.498 309.563 179.916 313.73 178.304 315.593C176.358 317.838 174.579 316.106 174.579 316.106C174.579 316.106 169.672 314.912 169.672 310.793C169.672 306.674 169.266 300.978 169.266 300.978L174.985 297.707Z" fill="white" stroke="#263238" stroke-linecap="round" stroke-linejoin="round"/>
<path d="M170.973 309.898L177.863 311.689" stroke="#263238" stroke-linecap="round" stroke-linejoin="round"/>
<path d="M172.621 305.253L174.579 308.333C174.579 308.333 170.018 316.13 172.466 314.088C174.913 312.047 179.486 309.563 179.08 307.521C178.389 305.379 177.477 303.314 176.358 301.36" fill="white"/>
<path d="M172.621 305.253L174.579 308.333C174.579 308.333 170.018 316.13 172.466 314.088C174.913 312.047 179.486 309.563 179.08 307.521C178.389 305.379 177.477 303.314 176.358 301.36" stroke="#263238" stroke-linecap="round" stroke-linejoin="round"/>
<path d="M134.998 169.268C134.998 169.268 130.795 164.731 121.1 167.644C111.405 170.558 109.16 186.08 109.458 193.829C109.757 201.578 117.219 210.318 114.963 214.198C112.706 218.079 104.288 227.129 104.933 236.884C105.578 246.639 113.661 254.341 125.303 250.783C136.944 247.224 134.998 232.98 132.682 227.774C130.365 222.568 135.273 220.336 136.885 209.016C138.496 197.697 128.156 188.324 128.156 180.241C128.156 172.158 136.514 173.459 136.514 173.459L134.998 169.268Z" fill="#263238" stroke="#263238" stroke-linecap="round" stroke-linejoin="round"/>
<path d="M120.431 199.954C121.96 203.106 123.739 206.473 125.506 210.103C131.404 222.139 126.795 226.485 117.828 233.147C108.861 239.81 110.915 248.001 113.219 249.266" stroke="white" stroke-width="0.5" stroke-linecap="round" stroke-linejoin="round"/>
<path d="M131.917 172.456C131.917 172.456 119.882 173.483 116.801 181.16C114.939 185.829 116.372 191.059 119.118 197.148" stroke="white" stroke-width="0.5" stroke-linecap="round" stroke-linejoin="round"/>
<path d="M123.118 246.269C124.044 246.617 125.031 246.772 126.019 246.723" stroke="white" stroke-width="0.5" stroke-linecap="round" stroke-linejoin="round"/>
<path d="M134.998 171.656C134.998 171.656 123.727 173.698 121.171 181.889C118.616 190.08 133.72 202.187 134.485 211.094C135.249 220.001 124.491 225.207 120.67 232.12C117.984 236.968 118.282 242.305 121.112 244.992" stroke="white" stroke-width="0.5" stroke-linecap="round" stroke-linejoin="round"/>
<path d="M163.917 336.512C163.917 336.512 161.135 360.535 158.341 368.201C155.547 375.866 149.29 436.103 148.944 439.59C148.598 443.076 157.994 451.076 161.827 453.524C165.66 455.971 163.917 456.652 159.738 456.998C155.559 457.345 150.687 456.652 148.598 452.819C146.508 448.987 141.625 447.948 141.625 447.948L140.932 456.306H139.535L138.496 445.858C138.141 443.486 138.503 441.062 139.535 438.897C141.278 435.065 141.923 427.053 141.923 416.211C141.923 405.37 139.834 387.997 140.872 379.639C141.911 371.281 146.102 365.013 146.102 358.052C146.102 351.091 146.448 340.643 146.448 340.643L163.917 336.512Z" fill="white" stroke="#263238" stroke-linecap="round" stroke-linejoin="round"/>
<path d="M138.496 445.858C138.219 444.061 138.37 442.224 138.938 440.497C141.099 444.151 147.296 449.106 152.072 451.076C154.662 452.197 157.485 452.673 160.299 452.461C160.86 452.879 161.385 453.237 161.827 453.524C165.66 455.912 163.917 456.652 159.738 456.998C155.559 457.345 150.687 456.652 148.598 452.819C146.508 448.987 141.625 447.948 141.625 447.948L140.932 456.306H139.535L138.496 445.858Z" fill="#263238" stroke="#263238" stroke-linecap="round" stroke-linejoin="round"/>
<path d="M143.714 340.345C143.714 340.345 137.744 358.099 132.228 373.418C126.712 388.737 113.422 423.913 112.025 430.181C110.628 436.45 109.936 447.948 106.055 453.87C102.175 459.792 98.39 462.574 99.0825 452.127C99.775 441.679 106.055 434.014 107.44 426.002C108.826 417.99 109.53 389.096 114.402 376.212C119.273 363.329 124.503 352.882 125.148 349.049C125.624 345.235 125.855 341.394 125.84 337.551L143.714 340.345Z" fill="white" stroke="#263238" stroke-linecap="round" stroke-linejoin="round"/>
<path d="M99.7989 447.649C99.8504 449.619 100.463 451.533 101.566 453.166C103.572 455.41 106.808 451.052 108.491 448.39C107.94 450.31 107.137 452.149 106.103 453.858C102.27 459.768 98.4377 462.562 99.1303 452.115C99.2454 450.612 99.4689 449.12 99.7989 447.649Z" fill="#263238" stroke="#263238" stroke-linecap="round" stroke-linejoin="round"/>
<path d="M140.968 200.193C140.968 200.193 138.879 201.936 137.482 213.781C136.085 225.625 144.801 262.532 144.801 262.532C144.801 262.532 129.828 287.056 126.342 299.247C122.855 311.438 120.766 357.108 120.766 357.108C120.766 357.108 128.085 359.902 143.058 360.941C158.03 361.98 166.042 358.159 166.042 358.159C166.042 358.159 166.735 292.979 166.735 282.937C166.735 272.895 167.439 250.054 168.478 247.272C169.517 244.49 172.657 237.171 172.657 234.389C172.657 231.607 151.714 201.936 151.714 201.936L140.968 200.193Z" fill="white" stroke="#263238" stroke-linecap="round" stroke-linejoin="round"/>
<path d="M126.306 299.247C129.052 289.695 140.419 264.287 144.478 259.917C150.651 261.97 161.911 264 166.937 262.496C166.782 266.078 166.699 279.451 166.699 282.877C166.699 292.979 166.006 358.099 166.006 358.099C166.006 358.099 157.994 361.932 143.022 360.881C128.049 359.831 120.73 357.049 120.73 357.049C120.73 357.049 122.819 311.438 126.306 299.247Z" fill="#263238" stroke="#263238" stroke-linecap="round" stroke-linejoin="round"/>
<path d="M148.693 159.143C148.693 159.143 152.43 151 159.821 151C167.212 151 170.496 157.567 168.86 163.31C167.224 169.053 173.779 167.418 174.603 171.119C175.427 174.82 169.266 177.268 165.982 177.268C162.699 177.268 148.693 159.143 148.693 159.143Z" fill="#263238" stroke="#263238" stroke-linecap="round" stroke-linejoin="round"/>
<path d="M159.487 158.307C161.684 157.113 164.263 156.254 165.457 158.116C167.761 161.698 160.597 164.516 162.902 168.361C165.206 172.205 170.842 171.179 170.579 172.456C170.317 173.734 166.746 174.498 166.746 174.498" stroke="white" stroke-width="0.5" stroke-linecap="round" stroke-linejoin="round"/>
<path d="M155.726 160.91C155.726 160.91 156.43 160.301 157.481 159.561" stroke="white" stroke-width="0.5" stroke-linecap="round" stroke-linejoin="round"/>
<path d="M167.642 178.092C167.119 177.703 166.708 177.185 166.448 176.587C165.851 172.182 164.561 167.847 162.126 165.412C158.441 161.943 153.742 159.746 148.717 159.143C147.229 158.924 145.711 159.063 144.287 159.549C137.947 161.77 132.503 166.152 133.673 176.719C134.962 188.36 144.025 191.274 144.025 191.274L144.669 198.438L153.72 202.641L154.042 194.88C154.042 194.88 160.179 197.459 162.4 197.136C164.621 196.814 165.314 193.9 166.281 189.698C166.636 187.78 166.812 185.833 166.806 183.883L169.517 181.184C171.057 179.62 169.54 179.238 167.642 178.092Z" fill="white" stroke="#263238" stroke-linecap="round" stroke-linejoin="round"/>
<path d="M133.649 176.719C132.455 166.152 137.923 161.77 144.263 159.549C145.687 159.063 147.205 158.924 148.693 159.143C152.119 159.601 155.416 160.746 158.388 162.51C156.574 162.14 159.666 167.477 156.824 170.868C154.336 174.016 151.163 176.556 147.547 178.295C147.547 178.295 144.323 175.704 143.344 179.262C142.365 182.82 142.699 185.399 145.29 186.056C147.881 186.713 148.872 186.056 148.872 186.056C148.872 186.056 147.153 190.127 144.096 191.811V191.226C144.096 191.226 134.998 188.372 133.649 176.719Z" fill="#263238" stroke="#263238" stroke-linecap="round" stroke-linejoin="round"/>
<path d="M158.341 200.539L156.609 209.948L138.15 200.193L139.893 191.489L158.341 200.539Z" fill="white" stroke="#263238" stroke-linecap="round" stroke-linejoin="round"/>
<path d="M149.422 279.868C151.333 280.277 153.273 280.541 155.224 280.656C156.741 280.561 158.806 278.853 160.335 279.582C161.863 280.31 164 284.907 164 284.907C164 284.907 166.03 285.934 165.445 287.02C164.86 288.107 162.353 289.11 162.353 289.11C162.353 289.11 159.965 291.367 158.58 291.594C157.194 291.82 148.753 285.624 148.753 285.624L149.422 279.868Z" fill="white" stroke="#263238" stroke-linecap="round" stroke-linejoin="round"/>
<path d="M150.317 284.334C150.597 283.998 150.797 283.604 150.905 283.181C151.012 282.757 151.023 282.315 150.937 281.887C150.851 281.459 150.671 281.055 150.408 280.706C150.146 280.357 149.809 280.07 149.422 279.868L126.222 258.138L151.487 218.855C152.614 216.778 152.888 214.343 152.25 212.068C151.612 209.792 150.113 207.855 148.07 206.667C146.028 205.478 143.602 205.133 141.309 205.703C139.015 206.273 137.034 207.714 135.786 209.721L113.888 253.242C112.75 254.347 112.091 255.856 112.056 257.442C112.02 259.028 112.609 260.565 113.697 261.72L113.781 261.803C115.978 265.194 140.144 282.925 147.213 285.241C147.762 285.415 148.35 285.422 148.903 285.26C149.456 285.099 149.948 284.776 150.317 284.334Z" fill="white" stroke="#263238" stroke-linecap="round" stroke-linejoin="round"/>
<path d="M251.346 226.237C251.346 226.237 254.343 235.514 254.343 237.317C254.321 238.619 254.221 239.919 254.044 241.21L256.683 245.305C256.838 245.568 256.886 245.881 256.817 246.179C256.748 246.476 256.568 246.736 256.313 246.905L252.242 249.293C252.242 249.293 251.645 258.845 251.048 260.039C250.451 261.233 240.302 260.946 240.302 260.946L237.006 267.227L219.932 260.648L224.421 248.362L223.49 229.819C223.49 229.819 233.973 220.553 251.346 226.237Z" fill="white" stroke="#263238" stroke-linecap="round" stroke-linejoin="round"/>
<path d="M239.657 248.803C239.657 248.803 236.684 251.597 234.451 251.788C232.218 251.979 224.959 250.296 224.397 249.556C223.836 248.815 218.821 238.392 219.001 233.365C219.18 228.338 219.383 220.9 224.768 218.488C230.153 216.076 238.725 216.804 243.191 214.022C247.657 211.24 254.725 208.995 258.45 213.831C262.176 218.667 259.382 225.365 256.409 228.159C253.436 230.953 249.71 231.741 250.08 232.935C250.451 234.129 252.683 235.538 251.382 237.401C250.08 239.263 245.412 240.983 245.412 241.675C245.412 242.368 246.534 245.03 245.233 245.4C243.931 245.771 242.618 242.798 241.316 242.798C240.015 242.798 237.245 246.391 239.657 248.803Z" fill="#263238" stroke="#263238" stroke-linecap="round" stroke-linejoin="round"/>
<path d="M231.884 240.266C231.348 240.866 230.89 241.532 230.523 242.248" stroke="white" stroke-width="0.5" stroke-linecap="round" stroke-linejoin="round"/>
<path d="M256.337 220.983C256.101 223.032 255.354 224.99 254.165 226.675C252.976 228.361 251.382 229.721 249.531 230.631C244.755 233.102 238.391 235.12 234.164 238.224" stroke="white" stroke-width="0.5" stroke-linecap="round" stroke-linejoin="round"/>
<path d="M250.08 232.995C250.08 232.995 245.842 236.577 241.305 240.266C238.208 242.663 234.766 244.575 231.096 245.938" stroke="white" stroke-width="0.5" stroke-linecap="round" stroke-linejoin="round"/>
<path d="M239.358 249.305L241.746 249.902C241.602 251.018 241.687 252.152 241.997 253.234C242.307 254.317 242.835 255.324 243.549 256.194" fill="white"/>
<path d="M239.358 249.305L241.746 249.902C241.602 251.018 241.687 252.152 241.997 253.234C242.307 254.317 242.835 255.324 243.549 256.194" stroke="#263238" stroke-linecap="round" stroke-linejoin="round"/>
<path d="M242.128 242.893L258.988 238.714" stroke="#263238" stroke-linecap="round" stroke-linejoin="round"/>
<path d="M254.653 238.38L258.498 238.547C258.498 238.547 259.823 242.893 255.824 243.395" stroke="#263238" stroke-linecap="round" stroke-linejoin="round"/>
<path d="M237.651 444.81C237.651 444.81 253.173 454.613 255.907 454.613C258.641 454.613 260.003 457.073 258.641 457.347C257.28 457.622 248.827 457.885 243.119 458.159C237.412 458.434 233.567 457.885 230.308 457.885C227.048 457.885 223.215 458.159 221.58 457.347C219.944 456.535 222.678 447.258 222.678 445.622C222.678 443.987 235.74 443.712 237.651 444.81Z" fill="#263238" stroke="#263238" stroke-linecap="round" stroke-linejoin="round"/>
<path d="M257.662 455.019C251.633 457.001 241.854 455.7 235.979 455.162C231.335 454.744 224.039 454.649 221.066 454.625C220.947 456.022 221.066 457.085 221.532 457.347C223.168 458.159 226.988 457.885 230.26 457.885C233.532 457.885 237.34 458.434 243.072 458.159C248.803 457.885 257.244 457.61 258.594 457.347C259.656 457.132 259.155 455.724 257.662 455.019Z" fill="white" stroke="#263238" stroke-linecap="round" stroke-linejoin="round"/>
<path d="M249.913 377.469L237.663 438.9L240.218 445.276C238.384 447.931 235.617 449.799 232.469 450.506C228.967 451.194 225.411 451.562 221.842 451.604C221.842 451.604 220.481 444.786 221.305 443.963C222.129 443.139 222.392 439.879 222.392 439.879L229.472 378.006L249.913 377.469Z" fill="#2ECC71" stroke="#263238" stroke-linecap="round" stroke-linejoin="round"/>
<path d="M287.25 442.733C287.25 442.733 296.802 450.637 301.16 451.998C305.518 453.359 310.151 454.721 310.151 456.082C310.151 457.443 299.799 458.804 291.894 457.992C283.99 457.18 271.99 453.634 269.268 453.634C266.546 453.634 267.083 446.542 267.083 445.455C267.083 444.369 280.444 435.64 287.25 442.733Z" fill="#263238" stroke="#263238" stroke-linecap="round" stroke-linejoin="round"/>
<path d="M310.198 456.082C310.198 455.592 309.589 455.103 308.622 454.613C300.82 455.657 292.911 455.601 285.124 454.446C277.28 453.324 270.713 451.819 267.358 450.983C267.644 452.452 268.205 453.634 269.316 453.634C272.038 453.634 284.038 457.216 291.942 457.992C299.846 458.768 310.198 457.443 310.198 456.082Z" fill="white" stroke="#263238" stroke-linecap="round" stroke-linejoin="round"/>
<path d="M239.836 349.935C248.009 349.31 256.224 349.493 264.361 350.484C278.259 352.12 309.315 354.066 309.852 357.577C310.389 361.087 285.757 434.864 285.757 436.763C285.757 438.661 287.93 440.584 288.479 441.67C288.826 442.445 289.013 443.281 289.029 444.13C289.029 444.13 282.354 451.294 277.172 453.24C271.99 455.186 267.62 453.359 266.546 453.359C265.471 453.359 265.459 446.004 266.283 442.458C267.107 438.912 268.456 429.921 268.731 429.109C269.005 428.297 283.93 375.833 283.93 375.833C283.93 375.833 243.334 382.376 219.084 379.642C194.834 376.908 192.374 373.111 191.013 367.379C189.652 361.648 192.374 350.21 192.374 350.21L239.836 349.935Z" fill="#2ECC71" stroke="#263238" stroke-linecap="round" stroke-linejoin="round"/>
<path d="M236.767 367.594C236.216 368.391 235.601 369.142 234.929 369.839" stroke="#263238" stroke-linecap="round" stroke-linejoin="round"/>
<path d="M244.194 352.932C242.627 356.856 240.821 360.68 238.785 364.383" stroke="#263238" stroke-linecap="round" stroke-linejoin="round"/>
<path d="M240.946 355.666C237.658 361.092 232.678 365.287 226.774 367.606" stroke="#263238" stroke-linecap="round" stroke-linejoin="round"/>
<path d="M302.819 370.711C303.751 370.353 304.646 369.982 305.494 369.6L302.819 370.711Z" fill="white"/>
<path d="M302.819 370.711C303.751 370.353 304.646 369.982 305.494 369.6" stroke="#263238" stroke-linecap="round" stroke-linejoin="round"/>
<path d="M283.93 375.833C289.175 374.82 294.357 373.509 299.452 371.905L283.93 375.833Z" fill="white"/>
<path d="M283.93 375.833C289.175 374.82 294.357 373.509 299.452 371.905" stroke="#263238" stroke-linecap="round" stroke-linejoin="round"/>
<path d="M315.44 285.316C316.013 283.035 316.968 283.214 316.204 282.462C315.153 281.411 314.306 282.653 311.261 284.361C308.216 286.068 305.184 288.158 305.184 288.158C305.25 287.524 305.513 286.927 305.936 286.45C306.706 285.191 307.118 283.747 307.13 282.271C307.13 281.077 306.175 281.316 305.792 282.462C305.41 283.608 301.996 285.686 301.804 286.641C301.613 287.596 300.933 291.346 300.933 291.346C299.846 292.981 299.846 300.611 299.846 300.611L277.721 317.231L266.546 330.365C266.546 330.365 271.453 338.27 274.175 337.183C276.898 336.097 278.259 334.998 284.802 329.542C290.342 324.921 304.228 303.608 304.228 303.608C306.647 302.089 308.935 300.372 311.07 298.474C313.532 295.688 314.987 292.156 315.201 288.444C315.15 287.396 315.23 286.345 315.44 285.316Z" fill="white" stroke="#263238" stroke-linecap="round" stroke-linejoin="round"/>
<path d="M213.066 260.099C213.066 260.099 215.168 252.218 224.099 253.794C233.03 255.37 239.86 262.725 241.436 265.352C243.012 267.979 212.541 264.301 212.541 264.301L213.066 260.099Z" fill="white" stroke="#263238" stroke-linecap="round" stroke-linejoin="round"/>
<path d="M264.552 328.921C264.552 328.921 262.474 331.165 264.552 334.7C265.973 337.147 268.48 339.022 273.28 338.198C277.769 337.41 284.515 326.258 284.515 318.414C284.515 310.569 278.736 310.056 276.635 311.584C274.534 313.112 264.552 328.921 264.552 328.921Z" fill="white" stroke="#263238" stroke-linecap="round" stroke-linejoin="round"/>
<path d="M216.935 259.179C216.935 259.179 195.682 269.269 192.685 271.119C189.688 272.97 187.777 296.731 187.777 300.826C187.777 304.921 190.774 345.004 191.586 351.786C192.398 358.568 218.571 363.236 227.299 360.777C236.027 358.317 244.528 352.12 244.528 349.935C244.528 347.75 243.704 329.231 244.254 325.685C244.803 322.139 249.698 307.154 249.698 307.154L264.576 330.891C264.576 330.891 266.14 333.804 271.668 331.512C279.572 328.24 280.229 315.596 280.229 315.596C280.229 315.596 271.513 300.336 269.053 292.707C266.593 285.077 265.471 279.346 264.42 277.985C263.37 276.624 238.797 265.173 234.439 262.176C231.971 260.318 229.095 259.076 226.05 258.555C223.006 258.033 219.88 258.247 216.935 259.179Z" fill="white" stroke="#263238" stroke-linecap="round" stroke-linejoin="round"/>
<path d="M249.639 307.154L242.558 296.79" stroke="#263238" stroke-linecap="round" stroke-linejoin="round"/>
<path d="M248.492 305.674L236.015 299.524" stroke="#263238" stroke-linecap="round" stroke-linejoin="round"/>
<path d="M211.514 383.845L222.403 461.24C222.429 461.419 222.491 461.591 222.586 461.745C222.682 461.899 222.808 462.032 222.957 462.134C223.107 462.236 223.276 462.306 223.454 462.339C223.632 462.372 223.815 462.368 223.991 462.326C224.297 462.251 224.567 462.069 224.75 461.813C224.934 461.557 225.021 461.243 224.994 460.929L217.317 382.567L211.514 383.845Z" fill="#263238" stroke="#263238" stroke-linecap="round" stroke-linejoin="round"/>
<path d="M180.231 384.454L162.035 460.464C161.993 460.64 161.989 460.823 162.022 461.001C162.055 461.179 162.125 461.348 162.227 461.498C162.33 461.647 162.462 461.774 162.616 461.869C162.77 461.965 162.942 462.027 163.121 462.052C163.433 462.098 163.75 462.029 164.014 461.858C164.278 461.686 164.47 461.424 164.554 461.12L185.688 387.355L180.231 384.454Z" fill="#263238" stroke="#263238" stroke-linecap="round" stroke-linejoin="round"/>
<path d="M213.281 383.51L201.7 460.798C201.673 460.976 201.683 461.158 201.729 461.332C201.776 461.506 201.858 461.669 201.97 461.81C202.082 461.951 202.221 462.067 202.38 462.152C202.539 462.237 202.714 462.288 202.894 462.302C203.207 462.32 203.517 462.223 203.765 462.03C204.013 461.837 204.183 461.56 204.243 461.252L218.941 385.934L213.281 383.51Z" fill="#263238" stroke="#263238" stroke-linecap="round" stroke-linejoin="round"/>
<path d="M254.283 383.845L265.173 461.24C265.198 461.419 265.26 461.591 265.355 461.745C265.451 461.899 265.577 462.032 265.727 462.134C265.876 462.236 266.045 462.306 266.223 462.339C266.401 462.372 266.584 462.368 266.761 462.326C267.067 462.251 267.336 462.069 267.519 461.813C267.703 461.557 267.79 461.243 267.764 460.929L260.05 382.543L254.283 383.845Z" fill="#263238" stroke="#263238" stroke-linecap="round" stroke-linejoin="round"/>
<path d="M163.002 303.524L176.255 389.695H270.51C270.51 389.695 271.907 364.86 267.752 356.084C263.596 347.308 212.29 366.126 210.44 365.636C209.067 365.29 211.096 320.802 213.616 303.417C213.792 302.193 213.703 300.946 213.355 299.759C213.007 298.573 212.407 297.475 211.598 296.541C210.788 295.607 209.787 294.858 208.662 294.344C207.537 293.831 206.315 293.566 205.079 293.566H171.527C170.281 293.565 169.05 293.834 167.918 294.354C166.786 294.875 165.78 295.634 164.97 296.581C164.159 297.527 163.564 298.638 163.224 299.837C162.885 301.035 162.809 302.294 163.002 303.524Z" fill="#2ECC71" stroke="#263238" stroke-linecap="round" stroke-linejoin="round"/>
<path d="M267.752 356.084C263.596 347.308 212.29 366.126 210.44 365.636C209.067 365.29 211.096 320.802 213.616 303.417C213.836 302.209 213.787 300.967 213.473 299.78C213.159 298.592 212.587 297.489 211.797 296.548C211.008 295.607 210.022 294.851 208.907 294.335C207.793 293.819 206.579 293.554 205.351 293.56C204.122 293.567 202.911 293.843 201.802 294.371C200.693 294.899 199.714 295.664 198.934 296.613C198.155 297.562 197.594 298.672 197.292 299.862C196.99 301.052 196.954 302.295 197.186 303.5L210.44 389.671H270.51C270.51 389.671 271.907 364.86 267.752 356.084Z" fill="#263238" stroke="#263238" stroke-linecap="round" stroke-linejoin="round"/>
<path d="M315.44 285.316C315.44 285.316 313.924 286.832 311.643 289.495L315.44 285.316Z" fill="white"/>
<path d="M315.44 285.316C315.44 285.316 313.924 286.832 311.643 289.495" stroke="#263238" stroke-linecap="round" stroke-linejoin="round"/>
<path d="M315.201 288.396C315.201 288.396 313.35 292.158 312.216 293.865L315.201 288.396Z" fill="white"/>
<path d="M315.201 288.396C315.201 288.396 313.35 292.158 312.216 293.865" stroke="#263238" stroke-linecap="round" stroke-linejoin="round"/>
<path d="M48.1898 330.189C50.1719 331.048 55.0076 330.941 55.0195 330.941C55.0315 330.941 53.9807 327.777 53.8852 327.586C52.8226 325.353 49.4555 321.687 46.7212 322.058C46.2686 322.131 45.8366 322.3 45.4535 322.552C45.0704 322.804 44.7449 323.134 44.4981 323.521C44.2513 323.907 44.0888 324.341 44.0213 324.795C43.9538 325.249 43.9828 325.711 44.1064 326.153C44.5601 328.04 46.4944 329.448 48.1898 330.189Z" fill="#263238"/>
<path d="M111.651 313.7C108.905 313.401 105.681 317.162 104.642 319.419C104.559 319.61 103.556 322.81 103.603 322.81C103.078 323.395 102.529 324.004 101.944 324.744C100.869 326.058 99.6751 327.562 98.4692 329.281C97.1703 331.124 95.9744 333.037 94.8872 335.012C93.6617 337.227 92.631 339.544 91.8067 341.938C91.8118 341.965 91.8118 341.994 91.8067 342.021C91.8067 341.221 91.8067 338.953 91.8067 338.786C91.4843 336.338 89.4187 331.801 86.7202 331.299C86.2707 331.227 85.8109 331.249 85.3706 331.365C84.9302 331.481 84.5191 331.688 84.1636 331.973C83.8081 332.257 83.5162 332.613 83.3067 333.017C83.0972 333.422 82.9747 333.865 82.9472 334.32C82.78 336.266 84.1412 338.212 85.5621 339.43C87.1143 340.815 91.4126 342.153 91.7589 342.26C90.9782 344.742 90.3717 347.276 89.944 349.842C89.6694 351.323 89.4545 352.815 89.2515 354.319C89.2515 353.615 89.2515 352.994 89.2515 352.911C88.9411 350.463 86.8635 345.926 84.177 345.424C83.7239 345.353 83.261 345.378 82.8183 345.498C82.3756 345.618 81.963 345.829 81.6072 346.118C81.2514 346.408 80.9605 346.769 80.7532 347.178C80.5459 347.587 80.4269 348.035 80.404 348.493C80.2487 350.439 81.598 352.385 83.0308 353.615C84.4636 354.845 88.0575 356.075 89.0008 356.373C88.9291 356.958 88.8455 357.567 88.7739 358.104C88.4515 360.875 88.1292 363.645 87.7351 366.343C87.5919 367.298 87.4247 368.23 87.2575 369.161C87.2575 368.54 87.2575 368.027 87.2575 367.967C86.9352 365.519 84.8695 360.982 82.1711 360.481C81.718 360.411 81.2554 360.438 80.8133 360.559C80.3712 360.681 79.9596 360.893 79.6049 361.184C79.2503 361.474 78.9607 361.836 78.7549 362.245C78.549 362.655 78.4315 363.103 78.41 363.561C78.2548 365.495 79.604 367.442 81.0368 368.671C82.8196 369.85 84.7726 370.748 86.8277 371.334C86.6247 372.289 86.4217 373.232 86.1829 374.152C86.0038 374.773 85.8844 375.346 85.6695 375.991C85.4546 376.635 85.2755 377.185 85.0845 377.805C84.6666 378.94 84.2486 380.122 83.8188 381.22C83.5203 381.996 83.2218 382.725 82.9352 383.453C83.0785 382.51 83.3293 380.647 83.3412 380.492C83.3075 378.322 82.7198 376.197 81.6338 374.319C81.6634 374.081 81.6634 373.84 81.6338 373.603C81.5797 373.143 81.4283 372.7 81.1897 372.304C80.9512 371.907 80.6309 371.566 80.2503 371.303C79.8696 371.04 79.4373 370.86 78.9821 370.777C78.5268 370.694 78.0591 370.709 77.61 370.821C74.9354 371.525 73.2519 376.206 73.1206 378.665C73.1206 378.808 73.2161 380.396 73.2877 381.399C73.1564 380.814 73.025 380.205 72.8818 379.656C72.6071 378.462 72.2848 377.268 71.9624 376.074C71.7713 375.465 71.5922 374.88 71.4012 374.247C71.2102 373.615 70.9714 373.053 70.7564 372.385C70.2311 370.94 69.6341 369.507 68.9893 368.074C70.0162 367.824 73.6698 366.88 75.1384 365.77C76.607 364.66 78.1473 362.809 78.1354 360.863C78.1496 360.399 78.0647 359.938 77.8863 359.51C77.708 359.082 77.4404 358.696 77.1014 358.38C76.7623 358.063 76.3597 357.823 75.9203 357.675C75.4809 357.526 75.0149 357.473 74.5534 357.519C71.8072 357.818 69.4192 362.188 68.9296 364.6C68.9296 364.755 68.7266 366.522 68.655 367.501C68.2729 366.642 67.8789 365.782 67.461 364.922C66.267 362.463 64.9058 359.991 63.6044 357.531L62.4104 355.263C62.7805 355.179 67.1864 354.176 68.7863 352.875C70.3863 351.573 71.7952 349.926 71.7833 347.967C71.7955 347.504 71.7093 347.044 71.5304 346.617C71.3514 346.19 71.0837 345.805 70.7451 345.489C70.4065 345.173 70.0046 344.933 69.5661 344.784C69.1276 344.634 68.6624 344.58 68.2013 344.624C65.4551 344.923 63.079 349.293 62.5775 351.705C62.5775 351.896 62.3029 354.439 62.279 355.096C61.4194 353.436 60.5716 351.764 59.8075 350.093C58.7584 347.833 57.857 345.508 57.109 343.132C57.2762 343.132 61.885 342.057 63.5327 340.744C64.9894 339.621 66.5416 337.783 66.5177 335.836C66.5319 335.373 66.447 334.912 66.2687 334.483C66.0904 334.055 65.8228 333.67 65.4838 333.354C65.1447 333.037 64.742 332.797 64.3026 332.648C63.8632 332.5 63.3972 332.447 62.9357 332.493C60.1895 332.792 57.8135 337.162 57.312 339.574C57.312 339.765 57.0254 342.511 57.0135 343.012C57.0135 342.869 56.918 342.738 56.8702 342.594C56.1916 340.192 55.7242 337.735 55.4732 335.251C55.33 333.878 55.2583 332.565 55.2106 331.275C56.0822 331.168 59.9866 330.642 61.694 329.651C63.4014 328.66 65.0133 327.037 65.276 325.102C65.3381 324.648 65.3041 324.186 65.176 323.745C65.048 323.305 64.8288 322.897 64.5327 322.546C64.2366 322.196 63.8702 321.912 63.4573 321.713C63.0443 321.514 62.5941 321.403 62.1358 321.389C59.3657 321.389 56.524 325.472 55.7598 327.813C55.7598 327.944 55.4494 329.281 55.2583 330.26C55.2583 329.687 55.2583 329.066 55.2583 328.529C55.2583 326.44 55.3897 324.529 55.521 322.846C55.6046 321.879 55.7001 321.007 55.7956 320.195C56.5956 319.646 59.7836 317.401 60.7627 315.789C61.7417 314.177 62.5059 311.944 61.7895 310.13C61.6357 309.699 61.3928 309.305 61.0768 308.974C60.7607 308.643 60.3785 308.382 59.955 308.209C59.5315 308.035 59.0762 307.953 58.6188 307.967C58.1614 307.981 57.712 308.092 57.3001 308.291C54.8404 309.556 54.1957 314.488 54.6016 316.923C54.6016 317.126 55.5688 320.35 55.6046 320.326C55.4971 321.102 55.3897 321.938 55.2941 322.858C55.127 324.553 54.9598 326.44 54.9001 328.565C54.8282 330.819 54.884 333.075 55.0673 335.323C55.2432 337.845 55.6427 340.346 56.2613 342.797C56.2665 342.825 56.2665 342.853 56.2613 342.881C55.8314 342.2 54.5539 340.338 54.4345 340.206C52.8226 338.344 48.6077 335.681 46.0765 336.768C45.6591 336.957 45.2863 337.232 44.9825 337.575C44.6787 337.918 44.4506 338.321 44.3131 338.759C44.1757 339.196 44.1319 339.657 44.1848 340.112C44.2376 340.567 44.3858 341.006 44.6198 341.4C45.563 343.108 47.8078 343.956 49.6346 344.218C51.6883 344.517 56.0105 343.263 56.3568 343.168C57.067 345.643 57.9405 348.068 58.9717 350.427C59.5687 351.8 60.1657 353.173 60.8701 354.534C60.4761 353.949 60.1179 353.436 60.0701 353.34C58.4582 351.478 54.2434 348.815 51.7122 349.902C51.3018 350.111 50.9405 350.404 50.6519 350.763C50.3633 351.122 50.154 351.538 50.0378 351.984C49.9216 352.429 49.9011 352.894 49.9778 353.348C50.0544 353.802 50.2263 354.235 50.4823 354.618C51.4136 356.325 53.6703 357.173 55.4852 357.436C57.3001 357.698 61.0373 356.719 62.0164 356.433C62.279 356.958 62.5298 357.484 62.7925 357.997C63.9865 360.492 65.3118 362.976 66.47 365.448C66.8759 366.319 67.2461 367.191 67.664 368.062L66.9595 367.059C65.3476 365.197 61.1328 362.546 58.6015 363.621C58.1848 363.812 57.813 364.09 57.5104 364.434C57.2077 364.779 56.9809 365.183 56.8447 365.621C56.7084 366.059 56.6658 366.521 56.7196 366.977C56.7733 367.432 56.9223 367.871 57.1568 368.265C58.1 369.973 60.3448 370.821 62.1596 371.083C64.3173 371.092 66.4636 370.77 68.5237 370.128C68.8819 371.035 69.2401 371.943 69.5386 372.826C69.7416 373.447 69.9684 374.02 70.1236 374.653C70.2788 375.286 70.4699 375.847 70.637 376.492C70.9236 377.686 71.2221 378.88 71.4728 380.074C71.6519 380.874 71.8072 381.65 71.9624 382.462C71.5564 381.59 70.7684 379.895 70.6609 379.764C69.3475 377.674 65.5864 374.415 62.9119 375.095C62.4718 375.222 62.0632 375.44 61.7127 375.735C61.3623 376.03 61.0776 376.395 60.8773 376.807C60.6769 377.219 60.5653 377.669 60.5497 378.127C60.5341 378.584 60.6148 379.04 60.7865 379.465C61.4552 381.292 63.5447 382.474 65.2999 383.047C67.2461 383.632 71.5325 383.047 72.0698 383.047C72.3325 384.325 72.5594 385.578 72.7743 386.76C73.4907 390.856 73.9683 394.307 74.219 396.706C74.219 397.136 74.3146 397.518 74.3504 397.9H65.9924L69.0252 457.087H83.186L86.2188 397.9H78.4697L78.6488 397.554C79.7115 395.333 81.1801 392.157 82.7681 388.265C83.2815 387.071 83.7949 385.722 84.3083 384.361C84.8337 384.468 89.0844 385.328 91.0545 384.874C92.8574 384.468 95.0305 383.453 95.8305 381.686C96.0346 381.275 96.1498 380.826 96.1684 380.368C96.187 379.909 96.1087 379.452 95.9385 379.026C95.7683 378.6 95.5101 378.215 95.1808 377.895C94.8515 377.576 94.4585 377.33 94.0275 377.173C91.4127 376.289 87.4247 379.262 85.9561 381.244C85.8725 381.364 85.0725 382.737 84.583 383.632L85.2158 381.961C85.6337 380.826 86.0158 379.668 86.4098 378.438L86.9471 376.611C87.1501 376.003 87.2814 375.346 87.4486 374.701C87.7948 373.209 88.0814 371.68 88.3441 370.128C89.3351 370.486 92.9051 371.728 94.7439 371.597C96.5827 371.465 98.8871 370.797 99.9497 369.209C100.219 368.832 100.405 368.402 100.496 367.948C100.587 367.493 100.58 367.025 100.476 366.573C100.372 366.122 100.174 365.697 99.8937 365.328C99.6136 364.959 99.2583 364.654 98.8513 364.433C96.4633 363.239 91.9977 365.507 90.2545 367.239C90.147 367.358 89.0605 368.743 88.4396 369.519C88.5829 368.588 88.7262 367.656 88.8456 366.701C89.1918 363.967 89.4426 361.185 89.7172 358.415C89.8008 357.567 89.8963 356.719 89.9799 355.872C90.3381 356.003 94.5409 357.567 96.6066 357.424C98.4334 357.293 100.738 356.624 101.8 355.036C102.07 354.659 102.256 354.229 102.347 353.775C102.438 353.32 102.431 352.852 102.327 352.4C102.223 351.949 102.025 351.525 101.744 351.156C101.464 350.787 101.109 350.481 100.702 350.26C98.314 349.006 93.8603 351.335 92.1052 353.066C91.9738 353.197 90.3739 355.203 89.9918 355.728C90.1948 353.866 90.4097 352.015 90.6963 350.188C91.0639 347.728 91.5944 345.295 92.2843 342.905C92.4514 342.905 96.8215 344.612 98.9468 344.469C100.774 344.338 103.078 343.657 104.141 342.081C104.412 341.705 104.6 341.275 104.692 340.82C104.783 340.365 104.777 339.896 104.673 339.444C104.569 338.992 104.37 338.567 104.089 338.198C103.807 337.83 103.451 337.525 103.042 337.305C100.654 336.039 96.2006 338.368 94.4454 340.111C94.3141 340.242 92.5947 342.403 92.3081 342.809L92.4156 342.391C93.1737 340.01 94.1406 337.701 95.3051 335.49C95.9379 334.296 96.6066 333.102 97.2752 332.027C98.0632 332.422 101.669 334.177 103.58 334.248C105.49 334.32 107.782 333.902 109.024 332.398C109.319 332.055 109.54 331.654 109.671 331.221C109.803 330.788 109.843 330.333 109.79 329.883C109.736 329.434 109.589 329.001 109.358 328.612C109.128 328.222 108.819 327.885 108.451 327.622C106.147 326.093 101.526 327.92 99.6035 329.46C99.496 329.544 98.517 330.511 97.8244 331.228C98.1349 330.738 98.4453 330.225 98.7557 329.771C99.9497 328.028 101.072 326.511 102.123 325.162C102.72 324.41 103.317 323.741 103.806 323.12C104.774 323.12 108.678 322.977 110.385 322.177C112.093 321.377 113.967 319.932 114.361 318.034C114.526 317.571 114.585 317.076 114.532 316.587C114.478 316.098 114.315 315.628 114.055 315.211C113.794 314.794 113.442 314.442 113.026 314.18C112.61 313.918 112.14 313.754 111.651 313.7ZM81.2636 387.429C79.604 391.25 78.0757 394.366 76.9891 396.527L76.3802 397.721H76.2011C76.2011 397.304 76.0817 396.838 76.01 396.324C75.6757 393.936 75.1504 390.426 74.3265 386.307C74.0758 385.005 73.7773 383.62 73.4549 382.199C74.7454 381.679 76.0051 381.085 77.2279 380.42C78.889 381.862 80.7413 383.068 82.7323 384.002C82.2427 385.16 81.7412 386.331 81.2636 387.429Z" fill="#263238"/>
<path d="M97.1916 331.251C97.1916 331.251 98.0752 328.04 98.0991 327.825C98.4453 325.377 97.6692 320.47 95.1738 319.264C94.7591 319.078 94.3104 318.981 93.8561 318.978C93.4019 318.976 92.9521 319.068 92.5353 319.249C92.1186 319.43 91.7441 319.695 91.4357 320.029C91.1273 320.362 90.8917 320.756 90.744 321.186C90.0754 323.013 90.9231 325.258 91.938 326.81C93.132 328.672 97.1916 331.251 97.1916 331.251Z" fill="#263238"/>
<path d="M546.768 456.801H61.1089V462.747H546.768V456.801Z" fill="#263238"/>
</g>
<defs>
<clipPath id="clip0">
<rect width="597" height="597" fill="white"/>
</clipPath>
</defs>
</svg>
